<?xml version="1.0" encoding="utf-8"?>
<!-- Generator: Adobe Illustrator 24.3.0, SVG Export Plug-In . SVG Version: 6.00 Build 0)  -->
<svg version="1.1" id="Layer_1" xmlns="http://www.w3.org/2000/svg" xmlns:xlink="http://www.w3.org/1999/xlink" x="0px" y="0px"
	 viewBox="0 0 2498.4 2499.8" style="enable-background:new 0 0 2498.4 2499.8;" xml:space="preserve">
<style type="text/css">
	.st0{fill:#FFFFFF;}
</style>
<path class="st0" d="M1354.7,217.5C1518.9,1,1747.3,0,1747.3,0s34,203.5-129.2,399.6c-174.2,209.4-372.3,175.1-372.3,175.1
	S1208.6,410,1354.7,217.5z M1266.7,717.2c84.5,0,241.3-116.2,445.5-116.2c351.4,0,489.6,250,489.6,250s-270.4,138.2-270.4,473.6
	c0,378.4,336.8,508.8,336.8,508.8s-235.4,662.7-553.4,662.7c-146.1,0-259.6-98.4-413.5-98.4c-156.8,0-312.5,102.1-413.8,102.1
	c-290.4,0.1-657.3-628.5-657.3-1133.8c0-497.1,310.5-757.9,601.8-757.9C1021.3,608.1,1168.2,717.2,1266.7,717.2L1266.7,717.2z"/>
</svg>
