<?xml version="1.0" encoding="utf-8"?>
<!-- Generator: Adobe Illustrator 24.3.0, SVG Export Plug-In . SVG Version: 6.00 Build 0)  -->
<svg version="1.1" id="Layer_1" xmlns="http://www.w3.org/2000/svg" xmlns:xlink="http://www.w3.org/1999/xlink" x="0px" y="0px"
	 viewBox="0 0 1000 1000" style="enable-background:new 0 0 1000 1000;" xml:space="preserve">
<style type="text/css">
	.st0{fill:#FFFFFF;}
</style>
<g>
	<g transform="translate(0.000000,252.000000) scale(0.100000,-0.100000)">
		<path class="st0" d="M4522.4,2406c-55-7.9-220.1-35.4-373.5-59c-845.2-133.6-1831.9-625-2500.2-1242.2
			C960.7,468,422.2-487.3,194.2-1466.1c-118-499.3-125.8-1470.3-19.7-1953.8c114-530.7,330.2-1092.8,581.8-1521.4
			c719.4-1210.8,1824-2016.7,3219.6-2342.9c522.8-125.8,1505.6-125.8,2024.5-4c1486,349.9,2641.7,1218.7,3310,2484.5
			c401,754.8,554.3,1316.9,585.7,2122.8c35.4,994.6-176.9,1847.6-676.2,2692.8C8528.2,1179.5,7341,2032.6,6016.2,2315.6
			C5662.4,2390.3,4750.4,2445.3,4522.4,2406z M5587.7,2036.5c1489.9-169,2865.8-1155.7,3534.1-2531.6
			c939.6-1930.2,420.6-4237.8-1250.1-5570.4C6605.8-7079.8,4935.1-7347.2,3402-6781.1C1959.3-6250.4,819.2-4909.9,532.3-3408.2
			C229.6-1823.9,717-286.8,1876.7,817.8C2867.3,1769.2,4180.3,2197.7,5587.7,2036.5z"/>
		<path class="st0" d="M6370,499.4C5465.8,393.3,4699.3,236,4070.3,23.7l-393.1-133.6l-11.8-1930.2l-7.9-1926.3l-369.5,19.6
			c-330.2,15.7-389.2,7.9-577.9-78.6c-385.2-176.9-597.5-459.9-597.5-798c0-334.1,129.7-511.1,475.6-644.7
			c570-224.1,1324.8,78.6,1466.3,593.6c31.4,117.9,47.2,640.8,47.2,1694.3c0,1183.3,11.8,1541,51.1,1580.3
			c137.6,133.7,1997,491.4,2582.7,491.4h184.8v-1104.6v-1104.7l-125.8,35.4c-192.6,47.2-499.2,35.4-719.4-27.5
			c-259.4-74.7-585.7-385.2-648.6-621.1c-157.2-593.6,440.3-1069.3,1128.2-896.3c318.4,78.6,570,251.6,707.6,487.4l110.1,184.8
			l11.8,2350.8l11.8,2347l-365.6-3.9C6829.9,534.8,6531.2,515.1,6370,499.4z"/>
	</g>
</g>
</svg>
