<?xml version="1.0" encoding="UTF-8"?>
<svg id="Layer_1" xmlns="http://www.w3.org/2000/svg" version="1.1" viewBox="0 0 2500 2500">
  <!-- Generator: Adobe Illustrator 29.5.0, SVG Export Plug-In . SVG Version: 2.1.0 Build 137)  -->
  <defs>
    <style>
      .st0 {
        fill: #fff;
      }
    </style>
  </defs>
  <path class="st0" d="M2202.38,0H297.62C133.33,0,0,133.33,0,297.62v1904.76c0,164.29,133.33,297.62,297.62,297.62h1904.76c164.29,0,297.62-133.33,297.62-297.62V297.62c0-164.29-133.33-297.62-297.62-297.62ZM773.81,952.38v1130.95h-357.14V952.38h357.14ZM416.67,623.21c0-83.33,71.43-147.02,178.57-147.02s174.4,63.69,178.57,147.02c0,83.33-66.67,150.6-178.57,150.6s-178.57-67.26-178.57-150.6ZM2083.33,2083.33h-357.14v-595.24c0-119.05-59.52-238.1-208.33-240.48h-4.76c-144.05,0-203.57,122.62-203.57,240.48v595.24h-357.14V952.38h357.14v152.38s114.88-152.38,345.83-152.38,427.98,162.5,427.98,491.67v639.29Z"/>
</svg>