<?xml version="1.0" encoding="utf-8"?>
<!-- Generator: Adobe Illustrator 24.3.0, SVG Export Plug-In . SVG Version: 6.00 Build 0)  -->
<svg version="1.1" id="Layer_1" xmlns="http://www.w3.org/2000/svg" xmlns:xlink="http://www.w3.org/1999/xlink" x="0px" y="0px"
	 viewBox="0 0 1994.2 1379.5" style="enable-background:new 0 0 1994.2 1379.5;" xml:space="preserve">
<style type="text/css">
	.st0{fill:#FFFFFF;}
</style>
<path class="st0" d="M1041.3,1377.7l-409.1-7.5c-132.5-2.6-265.3,2.6-395.1-24.4C39.4,1305.4,25.5,1107.5,10.8,941.5
	c-20.2-233.4-12.4-471,25.7-702.4C58,109.3,142.6,31.8,273.5,23.4c441.7-30.6,886.3-27,1327-12.7c46.5,1.3,93.4,8.5,139.3,16.6
	c226.5,39.7,232.1,264,246.8,452.8c14.6,190.7,8.5,382.4-19.5,571.9c-22.5,156.8-65.4,288.4-246.8,301.1
	c-227.2,16.6-449.2,30-677,25.7C1043.2,1377.7,1041.9,1377.7,1041.3,1377.7z M800.8,980.6c171.2-98.3,339.2-195,509.4-292.6
	C1138.6,589.7,971,493,800.8,395.4V980.6z"/>
</svg>
